<svg id="Calque_1" data-name="Calque 1" xmlns="http://www.w3.org/2000/svg" viewBox="0 0 97.86 93.12"><defs><style>.cls-1{fill:#fff;}</style></defs><title>Sans titre - 1</title><polygon class="cls-1" points="25.04 59.26 1.07 35.98 34.13 31.12 48.87 1.13 63.71 31.07 96.78 35.82 72.9 59.18 78.6 92.1 49 76.61 19.45 92.21 25.04 59.26"/><path d="M49.57,5.34l14.28,28.8.23.47.52.07,31.81,4.57-23,22.47-.38.37.09.52,5.49,31.67L50.17,79.37l-.47-.24-.46.24-28.43,15,5.38-31.69.09-.52-.38-.36-23-22.4,31.8-4.67.52-.08.23-.47L49.57,5.34m0-2.26L34.5,33.75l-33.8,5,24.51,23.8L19.49,96.21,49.7,80.26,80,96.1,74.14,62.44,98.56,38.55,64.74,33.69,49.57,3.08Z" transform="translate(-0.7 -3.08)"/></svg>